<?xml version="1.0" standalone="no"?>
<!DOCTYPE svg PUBLIC "-//W3C//DTD SVG 20010904//EN"
 "http://www.w3.org/TR/2001/REC-SVG-20010904/DTD/svg10.dtd">
<svg version="1.0" xmlns="http://www.w3.org/2000/svg"
 width="700.000000pt" height="700.000000pt" viewBox="0 0 700.000000 700.000000"
 preserveAspectRatio="xMidYMid meet">
<metadata>
Created by potrace 1.14, written by Peter Selinger 2001-2017
</metadata>
<g transform="translate(0.000000,700.000000) scale(0.100000,-0.100000)"
fill="#000000" stroke="none">
<path d="M1925 5864 c-338 -72 -610 -338 -698 -681 l-22 -88 0 -1490 0 -1490
23 -90 c73 -287 281 -526 552 -634 162 -64 81 -61 1700 -61 1619 0 1535 -3
1702 61 147 57 310 184 404 315 59 82 119 212 146 314 l23 85 0 1500 0 1500
-23 85 c-85 323 -317 561 -644 662 l-73 23 -1510 2 c-1306 1 -1519 0 -1580
-13z m3004 -134 c190 -24 319 -88 456 -225 100 -99 154 -189 197 -325 l23 -75
0 -1500 0 -1500 -23 -75 c-43 -137 -97 -226 -197 -325 -138 -138 -266 -201
-456 -225 -116 -14 -2784 -14 -2899 1 -335 42 -597 282 -664 611 -14 68 -16
242 -16 1513 0 1271 2 1445 16 1513 66 322 330 569 651 611 100 13 2809 13
2912 1z"/>
<path d="M2135 5511 c-295 -72 -516 -309 -571 -611 -20 -110 -20 -2480 0
-2590 46 -254 203 -457 438 -564 150 -69 80 -66 1480 -66 1067 0 1274 3 1333
15 40 8 115 37 175 66 90 45 117 64 190 138 122 123 181 233 214 393 14 66 16
178 16 767 0 379 -3 696 -6 705 -7 19 -47 21 -62 3 -8 -9 -12 -233 -14 -738
l-3 -724 -31 -86 c-78 -217 -248 -378 -469 -441 l-80 -23 -1265 0 c-1194 0
-1269 1 -1330 18 -206 58 -359 184 -450 372 -73 150 -70 91 -70 1460 0 1368
-3 1310 70 1460 70 145 175 252 315 320 154 74 48 69 1437 72 1197 4 1247 4
1253 22 3 10 3 26 -1 35 -6 15 -106 16 -1253 15 -1146 0 -1252 -2 -1316 -18z"/>
<path d="M3295 4674 c-204 -37 -355 -115 -495 -254 -79 -78 -104 -111 -142
-185 -57 -111 -86 -205 -96 -315 -26 -260 88 -523 273 -631 58 -34 85 -36 109
-10 17 19 66 178 66 216 0 11 -16 42 -35 70 -70 98 -99 272 -65 395 49 181
190 326 375 387 69 22 98 26 205 26 111 1 134 -2 203 -26 232 -81 351 -247
351 -492 0 -249 -101 -459 -257 -534 -75 -36 -139 -47 -195 -31 -57 15 -109
63 -122 111 -12 45 -12 47 62 289 62 203 68 285 28 365 -16 32 -41 61 -68 80
-39 27 -51 30 -120 30 -59 0 -86 -5 -118 -22 -86 -46 -156 -154 -175 -275 -11
-68 -7 -116 17 -218 l16 -65 -88 -350 -88 -350 1 -155 c0 -150 15 -296 34
-332 14 -25 61 -23 86 5 33 35 121 181 173 287 29 60 63 156 90 252 l43 155
49 -34 c83 -55 171 -76 296 -71 427 20 734 386 733 873 0 86 -6 141 -20 195
-81 315 -330 539 -676 611 -110 23 -331 24 -450 3z"/>
<path d="M5342 4468 c-7 -7 -12 -43 -12 -93 0 -86 8 -105 46 -105 29 0 34 17
34 105 0 40 -3 80 -6 89 -7 19 -45 21 -62 4z"/>
<path d="M5342 4188 c-8 -8 -12 -59 -12 -163 0 -104 4 -155 12 -163 17 -17 55
-15 62 4 3 9 6 80 6 159 0 79 -3 150 -6 159 -7 19 -45 21 -62 4z"/>
</g>
</svg>
